<?xml version="1.0" encoding="UTF-8" standalone="no"?>
<!DOCTYPE svg PUBLIC "-//W3C//DTD SVG 1.1//EN" "http://www.w3.org/Graphics/SVG/1.1/DTD/svg11.dtd">
<svg width="100%" height="100%" viewBox="0 0 800 200" version="1.1" xmlns="http://www.w3.org/2000/svg" xmlns:xlink="http://www.w3.org/1999/xlink" xml:space="preserve" style="fill-rule:evenodd;clip-rule:evenodd;stroke-linejoin:round;stroke-miterlimit:1.41421;">
    <g transform="matrix(1,0,0,1,16.672,-152.283)">
        <g id="Layer1">
            <g>
                <g transform="matrix(1,0,0,1,-135.398,93.3433)">
                    <text x="168.678px" y="196.057px" style="font-family:'WorkSans-Regular', 'Work Sans';font-size:160px;">{</text>
                    <text x="224.838px" y="196.057px" style="font-family:'WorkSans-Thin', 'Work Sans';font-weight:260;font-size:128px;">bl<tspan x="328.902px " y="196.057px ">o</tspan>om:run</text>
                    <text x="812.614px" y="196.057px" style="font-family:'WorkSans-Regular', 'Work Sans';font-size:160px;">}</text>
                </g>
                <g transform="matrix(1,0,0,1,-10.8901,130.077)">
                    <path d="M179.214,183.673C180.078,184.377 180.51,185.353 180.51,186.601C180.51,187.817 180.078,188.777 179.214,189.481C178.35,190.185 177.174,190.537 175.686,190.537L172.086,190.537L172.086,196.057L170.886,196.057L170.886,182.617L175.686,182.617C177.174,182.617 178.35,182.969 179.214,183.673ZM178.374,188.749C178.998,188.245 179.31,187.529 179.31,186.601C179.31,185.657 178.998,184.929 178.374,184.417C177.75,183.905 176.854,183.649 175.686,183.649L172.086,183.649L172.086,189.505L175.686,189.505C176.854,189.505 177.75,189.253 178.374,188.749Z"/>
                    <path d="M190.446,191.881L183.846,191.881L182.118,196.057L180.87,196.057L186.438,182.617L187.854,182.617L193.446,196.057L192.174,196.057L190.446,191.881ZM190.038,190.849L187.638,185.113L187.158,183.721L186.654,185.113L184.278,190.849L190.038,190.849Z"/>
                    <path d="M203.91,183.649L198.798,183.649L198.798,196.057L197.598,196.057L197.598,183.649L192.462,183.649L192.462,182.617L203.91,182.617L203.91,183.649Z"/>
                    <path d="M216.63,183.649L211.518,183.649L211.518,196.057L210.318,196.057L210.318,183.649L205.182,183.649L205.182,182.617L216.63,182.617L216.63,183.649Z"/>
                    <path d="M229.398,195.025L229.398,196.057L219.366,196.057L219.366,182.617L229.062,182.617L229.062,183.649L220.566,183.649L220.566,188.713L227.286,188.713L227.286,189.745L220.566,189.745L220.566,195.025L229.398,195.025Z"/>
                    <path d="M241.83,196.057L237.918,190.297L237.87,190.297L233.718,190.297L233.718,196.057L232.518,196.057L232.518,182.617L237.87,182.617C239.31,182.617 240.442,182.957 241.266,183.637C242.09,184.317 242.502,185.257 242.502,186.457C242.502,187.449 242.214,188.269 241.638,188.917C241.062,189.565 240.254,189.985 239.214,190.177L243.246,196.057L241.83,196.057ZM233.718,189.265L237.846,189.265C238.966,189.265 239.822,189.025 240.414,188.545C241.006,188.065 241.302,187.369 241.302,186.457C241.302,185.561 241.006,184.869 240.414,184.381C239.822,183.893 238.966,183.649 237.846,183.649L233.718,183.649L233.718,189.265Z"/>
                    <path d="M257.286,196.057L255.678,196.057L248.358,185.377L247.446,183.889L247.422,183.889L247.494,185.353L247.494,196.057L246.318,196.057L246.318,182.617L247.926,182.617L255.15,193.177L256.158,194.785L256.182,194.785L256.11,193.321L256.11,182.617L257.286,182.617L257.286,196.057Z"/>
                    <path d="M269.214,182.617L271.014,182.617L275.166,192.817L275.862,194.737L275.91,194.737L276.582,192.817L280.734,182.617L282.534,182.617L282.534,196.057L281.358,196.057L281.358,186.433L281.478,183.817L281.43,183.817L276.462,196.057L275.286,196.057L270.318,183.817L270.27,183.817L270.366,186.433L270.366,196.057L269.214,196.057L269.214,182.617Z"/>
                    <path d="M294.774,191.881L288.174,191.881L286.446,196.057L285.198,196.057L290.766,182.617L292.182,182.617L297.774,196.057L296.502,196.057L294.774,191.881ZM294.366,190.849L291.966,185.113L291.486,183.721L290.982,185.113L288.606,190.849L294.366,190.849Z"/>
                    <path d="M308.238,183.649L303.126,183.649L303.126,196.057L301.926,196.057L301.926,183.649L296.79,183.649L296.79,182.617L308.238,182.617L308.238,183.649Z"/>
                    <path d="M319.422,195.289C318.414,195.929 317.174,196.249 315.702,196.249C314.438,196.249 313.326,195.969 312.366,195.409C311.406,194.849 310.662,194.049 310.134,193.009C309.606,191.969 309.342,190.745 309.342,189.337C309.342,187.929 309.606,186.705 310.134,185.665C310.662,184.625 311.41,183.825 312.378,183.265C313.346,182.705 314.47,182.425 315.75,182.425C317.19,182.425 318.378,182.725 319.314,183.325C320.25,183.925 320.902,184.825 321.27,186.025L320.142,186.529C319.838,185.473 319.33,184.697 318.618,184.201C317.906,183.705 316.942,183.457 315.726,183.457C314.702,183.457 313.798,183.693 313.014,184.165C312.23,184.637 311.622,185.317 311.19,186.205C310.758,187.093 310.542,188.137 310.542,189.337C310.542,190.537 310.758,191.581 311.19,192.469C311.622,193.357 312.226,194.037 313.002,194.509C313.778,194.981 314.67,195.217 315.678,195.217C316.942,195.217 317.966,194.957 318.75,194.437C319.534,193.917 320.046,193.161 320.286,192.169L321.438,192.553C321.102,193.737 320.43,194.649 319.422,195.289Z"/>
                    <path d="M335.502,182.617L335.502,196.057L334.302,196.057L334.302,189.745L325.734,189.745L325.734,196.057L324.534,196.057L324.534,182.617L325.734,182.617L325.734,188.713L334.302,188.713L334.302,182.617L335.502,182.617Z"/>
                    <rect x="339.918" y="182.617" width="1.2" height="13.44"/>
                    <path d="M356.502,196.057L354.894,196.057L347.574,185.377L346.662,183.889L346.638,183.889L346.71,185.353L346.71,196.057L345.534,196.057L345.534,182.617L347.142,182.617L354.366,193.177L355.374,194.785L355.398,194.785L355.326,193.321L355.326,182.617L356.502,182.617L356.502,196.057Z"/>
                    <path d="M372.222,189.433L372.222,196.057L371.262,196.057L371.214,193.417C370.846,194.329 370.258,195.029 369.45,195.517C368.642,196.005 367.622,196.249 366.39,196.249C365.11,196.249 363.994,195.969 363.042,195.409C362.09,194.849 361.354,194.049 360.834,193.009C360.314,191.969 360.054,190.745 360.054,189.337C360.054,187.929 360.326,186.705 360.87,185.665C361.414,184.625 362.174,183.825 363.15,183.265C364.126,182.705 365.254,182.425 366.534,182.425C367.99,182.425 369.174,182.701 370.086,183.253C370.998,183.805 371.686,184.649 372.15,185.785L371.07,186.361C370.75,185.401 370.206,184.677 369.438,184.189C368.67,183.701 367.71,183.457 366.558,183.457C365.534,183.457 364.618,183.693 363.81,184.165C363.002,184.637 362.374,185.317 361.926,186.205C361.478,187.093 361.254,188.137 361.254,189.337C361.254,191.177 361.722,192.617 362.658,193.657C363.594,194.697 364.87,195.217 366.486,195.217C367.51,195.217 368.37,195.009 369.066,194.593C369.762,194.177 370.274,193.629 370.602,192.949C370.93,192.269 371.094,191.529 371.094,190.729L371.094,190.441L366.39,190.441L366.39,189.433L372.222,189.433Z"/>
                    <path d="M397.086,183.673C397.95,184.377 398.382,185.353 398.382,186.601C398.382,187.817 397.95,188.777 397.086,189.481C396.222,190.185 395.046,190.537 393.558,190.537L389.958,190.537L389.958,196.057L388.758,196.057L388.758,182.617L393.558,182.617C395.046,182.617 396.222,182.969 397.086,183.673ZM396.246,188.749C396.87,188.245 397.182,187.529 397.182,186.601C397.182,185.657 396.87,184.929 396.246,184.417C395.622,183.905 394.726,183.649 393.558,183.649L389.958,183.649L389.958,189.505L393.558,189.505C394.726,189.505 395.622,189.253 396.246,188.749Z"/>
                    <path d="M410.598,183.265C411.574,183.825 412.326,184.625 412.854,185.665C413.382,186.705 413.646,187.929 413.646,189.337C413.646,190.745 413.382,191.969 412.854,193.009C412.326,194.049 411.574,194.849 410.598,195.409C409.622,195.969 408.47,196.249 407.142,196.249C405.814,196.249 404.662,195.969 403.686,195.409C402.71,194.849 401.958,194.049 401.43,193.009C400.902,191.969 400.638,190.745 400.638,189.337C400.638,187.929 400.902,186.705 401.43,185.665C401.958,184.625 402.71,183.825 403.686,183.265C404.662,182.705 405.814,182.425 407.142,182.425C408.47,182.425 409.622,182.705 410.598,183.265ZM403.266,185.029C402.314,186.077 401.838,187.513 401.838,189.337C401.838,191.161 402.314,192.597 403.266,193.645C404.218,194.693 405.51,195.217 407.142,195.217C408.774,195.217 410.066,194.693 411.018,193.645C411.97,192.597 412.446,191.161 412.446,189.337C412.446,187.513 411.97,186.077 411.018,185.029C410.066,183.981 408.774,183.457 407.142,183.457C405.51,183.457 404.218,183.981 403.266,185.029Z"/>
                    <path d="M424.038,186.793L421.278,196.057L419.766,196.057L415.446,182.617L416.694,182.617L419.238,190.777L420.558,195.025L424.182,182.617L425.574,182.617L429.198,195.025L430.542,190.729L433.062,182.617L434.262,182.617L429.942,196.057L428.454,196.057L425.694,186.793L424.854,183.721L424.83,183.721L424.038,186.793Z"/>
                    <path d="M447.174,195.025L447.174,196.057L437.142,196.057L437.142,182.617L446.838,182.617L446.838,183.649L438.342,183.649L438.342,188.713L445.062,188.713L445.062,189.745L438.342,189.745L438.342,195.025L447.174,195.025Z"/>
                    <path d="M459.606,196.057L455.694,190.297L455.646,190.297L451.494,190.297L451.494,196.057L450.294,196.057L450.294,182.617L455.646,182.617C457.086,182.617 458.218,182.957 459.042,183.637C459.866,184.317 460.278,185.257 460.278,186.457C460.278,187.449 459.99,188.269 459.414,188.917C458.838,189.565 458.03,189.985 456.99,190.177L461.022,196.057L459.606,196.057ZM451.494,189.265L455.622,189.265C456.742,189.265 457.598,189.025 458.19,188.545C458.782,188.065 459.078,187.369 459.078,186.457C459.078,185.561 458.782,184.869 458.19,184.381C457.598,183.893 456.742,183.649 455.622,183.649L451.494,183.649L451.494,189.265Z"/>
                    <path d="M474.126,195.025L474.126,196.057L464.094,196.057L464.094,182.617L473.79,182.617L473.79,183.649L465.294,183.649L465.294,188.713L472.014,188.713L472.014,189.745L465.294,189.745L465.294,195.025L474.126,195.025Z"/>
                    <path d="M486.99,184.321C488.19,185.457 488.79,187.097 488.79,189.241C488.79,191.449 488.19,193.137 486.99,194.305C485.79,195.473 484.062,196.057 481.806,196.057L477.246,196.057L477.246,182.617L481.806,182.617C484.062,182.617 485.79,183.185 486.99,184.321ZM486.126,193.537C487.102,192.545 487.59,191.113 487.59,189.241C487.59,187.433 487.102,186.049 486.126,185.089C485.15,184.129 483.734,183.649 481.878,183.649L478.446,183.649L478.446,195.025L481.878,195.025C483.734,195.025 485.15,194.529 486.126,193.537Z"/>
                    <path d="M499.854,182.617L505.038,182.617C506.558,182.617 507.694,182.921 508.446,183.529C509.198,184.137 509.574,185.017 509.574,186.169C509.574,186.969 509.35,187.641 508.902,188.185C508.454,188.729 507.822,189.081 507.006,189.241L507.006,189.265C507.966,189.377 508.702,189.725 509.214,190.309C509.726,190.893 509.982,191.617 509.982,192.481C509.982,193.633 509.558,194.517 508.71,195.133C507.862,195.749 506.638,196.057 505.038,196.057L499.854,196.057L499.854,182.617ZM505.11,188.785C507.286,188.785 508.374,187.929 508.374,186.217C508.374,185.369 508.098,184.729 507.546,184.297C506.994,183.865 506.182,183.649 505.11,183.649L501.054,183.649L501.054,188.785L505.11,188.785ZM505.206,195.025C506.39,195.025 507.282,194.805 507.882,194.365C508.482,193.925 508.782,193.273 508.782,192.409C508.782,191.545 508.482,190.893 507.882,190.453C507.282,190.013 506.39,189.793 505.206,189.793L501.054,189.793L501.054,195.025L505.206,195.025Z"/>
                    <path d="M517.398,190.873L517.398,196.057L516.198,196.057L516.198,190.873L511.23,182.617L512.598,182.617L516.798,189.817L518.358,187.177L521.022,182.617L522.366,182.617L517.398,190.873Z"/>
                    <path d="M543.414,196.057L541.806,196.057L534.486,185.377L533.574,183.889L533.55,183.889L533.622,185.353L533.622,196.057L532.446,196.057L532.446,182.617L534.054,182.617L541.278,193.177L542.286,194.785L542.31,194.785L542.238,193.321L542.238,182.617L543.414,182.617L543.414,196.057Z"/>
                    <path d="M556.926,183.265C557.902,183.825 558.654,184.625 559.182,185.665C559.71,186.705 559.974,187.929 559.974,189.337C559.974,190.745 559.71,191.969 559.182,193.009C558.654,194.049 557.902,194.849 556.926,195.409C555.95,195.969 554.798,196.249 553.47,196.249C552.142,196.249 550.99,195.969 550.014,195.409C549.038,194.849 548.286,194.049 547.758,193.009C547.23,191.969 546.966,190.745 546.966,189.337C546.966,187.929 547.23,186.705 547.758,185.665C548.286,184.625 549.038,183.825 550.014,183.265C550.99,182.705 552.142,182.425 553.47,182.425C554.798,182.425 555.95,182.705 556.926,183.265ZM549.594,185.029C548.642,186.077 548.166,187.513 548.166,189.337C548.166,191.161 548.642,192.597 549.594,193.645C550.546,194.693 551.838,195.217 553.47,195.217C555.102,195.217 556.394,194.693 557.346,193.645C558.298,192.597 558.774,191.161 558.774,189.337C558.774,187.513 558.298,186.077 557.346,185.029C556.394,183.981 555.102,183.457 553.47,183.457C551.838,183.457 550.546,183.981 549.594,185.029Z"/>
                    <path d="M573.27,184.321C574.47,185.457 575.07,187.097 575.07,189.241C575.07,191.449 574.47,193.137 573.27,194.305C572.07,195.473 570.342,196.057 568.086,196.057L563.526,196.057L563.526,182.617L568.086,182.617C570.342,182.617 572.07,183.185 573.27,184.321ZM572.406,193.537C573.382,192.545 573.87,191.113 573.87,189.241C573.87,187.433 573.382,186.049 572.406,185.089C571.43,184.129 570.014,183.649 568.158,183.649L564.726,183.649L564.726,195.025L568.158,195.025C570.014,195.025 571.43,194.529 572.406,193.537Z"/>
                    <path d="M588.654,195.025L588.654,196.057L578.622,196.057L578.622,182.617L588.318,182.617L588.318,183.649L579.822,183.649L579.822,188.713L586.542,188.713L586.542,189.745L579.822,189.745L579.822,195.025L588.654,195.025Z"/>
                    <path d="M604.398,191.545C604.398,193.017 604.002,194.169 603.21,195.001C602.418,195.833 601.294,196.249 599.838,196.249C598.494,196.249 597.462,195.929 596.742,195.289C596.022,194.649 595.662,193.769 595.662,192.649C595.662,192.345 595.686,192.025 595.734,191.689L596.886,191.425C596.838,191.761 596.814,192.073 596.814,192.361C596.814,193.305 597.07,194.017 597.582,194.497C598.094,194.977 598.838,195.217 599.814,195.217C602.07,195.217 603.198,193.937 603.198,191.377L603.198,182.617L604.398,182.617L604.398,191.545Z"/>
                    <path d="M618.438,185.353L617.502,186.145C617.15,185.201 616.618,184.517 615.906,184.093C615.194,183.669 614.262,183.457 613.11,183.457C611.894,183.457 610.922,183.717 610.194,184.237C609.466,184.757 609.102,185.401 609.102,186.169C609.102,186.745 609.294,187.209 609.678,187.561C610.062,187.913 610.538,188.173 611.106,188.341C611.674,188.509 612.446,188.689 613.422,188.881C614.558,189.089 615.466,189.305 616.146,189.529C616.826,189.753 617.406,190.105 617.886,190.585C618.366,191.065 618.606,191.729 618.606,192.577C618.606,193.297 618.382,193.937 617.934,194.497C617.486,195.057 616.862,195.489 616.062,195.793C615.262,196.097 614.342,196.249 613.302,196.249C611.798,196.249 610.538,195.977 609.522,195.433C608.506,194.889 607.814,194.105 607.446,193.081L608.382,192.289C608.67,193.249 609.242,193.977 610.098,194.473C610.954,194.969 612.022,195.217 613.302,195.217C614.518,195.217 615.506,194.989 616.266,194.533C617.026,194.077 617.406,193.449 617.406,192.649C617.406,192.073 617.214,191.613 616.83,191.269C616.446,190.925 615.97,190.669 615.402,190.501C614.834,190.333 614.07,190.161 613.11,189.985C611.974,189.761 611.062,189.541 610.374,189.325C609.686,189.109 609.102,188.757 608.622,188.269C608.142,187.781 607.902,187.113 607.902,186.265C607.902,185.577 608.11,184.937 608.526,184.345C608.942,183.753 609.546,183.285 610.338,182.941C611.13,182.597 612.046,182.425 613.086,182.425C615.742,182.425 617.526,183.401 618.438,185.353Z"/>
                    <text x="373.758px" y="196.057px" style="font-family:'WorkSans-Light', 'Work Sans';font-weight:300;font-size:24px;"><tspan x="373.758px 379.038px 490.134px 522.726px 589.566px " y="196.057px 196.057px 196.057px 196.057px 196.057px ">,   .</tspan></text>
                </g>
                <g transform="matrix(1.04037,2.53526e-16,6.87332e-15,0.142857,-16.5211,242.143)">
                    <rect x="112" y="412" width="545" height="7"/>
                </g>
            </g>
        </g>
    </g>
</svg>
