<?xml version="1.0" standalone="no"?>
<!DOCTYPE svg PUBLIC "-//W3C//DTD SVG 1.1//EN" "http://www.w3.org/Graphics/SVG/1.1/DTD/svg11.dtd">
<svg width="100%" height="100%" viewBox="0 0 2500 625" version="1.1" xmlns="http://www.w3.org/2000/svg" xmlns:xlink="http://www.w3.org/1999/xlink" xml:space="preserve" style="fill-rule:evenodd;clip-rule:evenodd;stroke-linejoin:round;stroke-miterlimit:1.41421;">
    <g transform="matrix(3.125,0,0,3.125,-0,-0)">
        <g transform="matrix(1,0,0,1,16.672,-152.283)">
            <g id="Layer1">
                <g>
                    <g transform="matrix(1,0,0,1,-135.398,93.3433)">
                        <path d="M206.678,213.817C209.078,215.203 212.945,215.897 218.278,215.897L216.198,226.297C207.238,226.297 200.811,224.643 196.918,221.337C193.025,218.03 191.078,213.07 191.078,206.457L191.078,173.337C191.078,167.363 189.718,163.097 186.998,160.537C184.278,157.977 179.665,156.697 173.158,156.697L173.158,145.497C179.665,145.497 184.278,144.217 186.998,141.657C189.718,139.097 191.078,134.83 191.078,128.857L191.078,95.737C191.078,89.123 193.025,84.163 196.918,80.857C200.811,77.55 207.238,75.897 216.198,75.897L218.278,86.297C212.945,86.297 209.078,86.99 206.678,88.377C204.278,89.763 203.078,91.897 203.078,94.777L203.078,129.977C203.078,141.39 196.998,148.43 184.838,151.097C196.998,153.763 203.078,160.803 203.078,172.217L203.078,207.417C203.078,210.297 204.278,212.43 206.678,213.817Z" style="fill:black;fill-rule:nonzero;"/>
                        <path d="M285.446,139.609C290.609,145.497 293.19,153.646 293.19,164.057C293.19,174.467 290.609,182.617 285.446,188.505C280.283,194.393 273.094,197.337 263.878,197.337C257.137,197.337 251.505,195.545 246.982,191.961C242.459,188.377 239.387,183.342 237.766,176.857L237.766,196.057L235.718,196.057L235.718,102.617L237.766,102.617L237.766,151.001C239.387,144.515 242.481,139.523 247.046,136.025C251.611,132.526 257.222,130.777 263.878,130.777C273.094,130.777 280.283,133.721 285.446,139.609ZM283.846,187.225C288.71,181.678 291.142,173.955 291.142,164.057C291.142,154.158 288.71,146.435 283.846,140.889C278.982,135.342 272.198,132.569 263.494,132.569C255.643,132.569 249.393,135.342 244.742,140.889C240.091,146.435 237.766,154.03 237.766,163.673L237.766,164.569C237.766,174.126 240.091,181.678 244.742,187.225C249.393,192.771 255.643,195.545 263.494,195.545C272.198,195.545 278.982,192.771 283.846,187.225Z" style="fill:black;fill-rule:nonzero;"/>
                        <path d="M312.134,182.361C312.134,186.969 312.902,190.318 314.438,192.409C315.974,194.499 318.321,195.545 321.478,195.545C323.27,195.545 324.678,195.417 325.702,195.161C326.726,194.905 327.793,194.521 328.902,194.009L328.902,195.801C327.025,196.825 324.55,197.337 321.478,197.337C317.638,197.337 314.779,196.142 312.902,193.753C311.025,191.363 310.086,187.566 310.086,182.361L310.086,102.617L312.134,102.617L312.134,182.361Z" style="fill:black;fill-rule:nonzero;"/>
                        <path d="M387.27,139.673C392.561,145.603 395.206,153.731 395.206,164.057C395.206,174.382 392.561,182.51 387.27,188.441C381.979,194.371 374.683,197.337 365.382,197.337C356.081,197.337 348.763,194.371 343.43,188.441C338.097,182.51 335.43,174.382 335.43,164.057C335.43,153.731 338.097,145.603 343.43,139.673C348.763,133.742 356.081,130.777 365.382,130.777C374.683,130.777 381.979,133.742 387.27,139.673ZM344.966,140.953C339.974,146.542 337.478,154.243 337.478,164.057C337.478,173.87 339.974,181.571 344.966,187.161C349.958,192.75 356.763,195.545 365.382,195.545C374.001,195.545 380.785,192.75 385.734,187.161C390.683,181.571 393.158,173.87 393.158,164.057C393.158,154.243 390.683,146.542 385.734,140.953C380.785,135.363 374.001,132.569 365.382,132.569C356.763,132.569 349.958,135.363 344.966,140.953Z" style="fill:black;fill-rule:nonzero;"/>
                        <path d="M460.102,139.673C465.393,145.603 468.038,153.731 468.038,164.057C468.038,174.382 465.393,182.51 460.102,188.441C454.811,194.371 447.515,197.337 438.214,197.337C428.913,197.337 421.595,194.371 416.262,188.441C410.929,182.51 408.262,174.382 408.262,164.057C408.262,153.731 410.929,145.603 416.262,139.673C421.595,133.742 428.913,130.777 438.214,130.777C447.515,130.777 454.811,133.742 460.102,139.673ZM417.798,140.953C412.806,146.542 410.31,154.243 410.31,164.057C410.31,173.87 412.806,181.571 417.798,187.161C422.79,192.75 429.595,195.545 438.214,195.545C446.833,195.545 453.617,192.75 458.566,187.161C463.515,181.571 465.99,173.87 465.99,164.057C465.99,154.243 463.515,146.542 458.566,140.953C453.617,135.363 446.833,132.569 438.214,132.569C429.595,132.569 422.79,135.363 417.798,140.953Z" style="fill:black;fill-rule:nonzero;"/>
                        <path d="M582.022,136.601C586.246,140.654 588.358,146.35 588.358,153.689L588.358,195.801L586.31,195.801L586.31,153.945C586.31,147.118 584.326,141.806 580.358,138.009C576.39,134.211 570.993,132.313 564.166,132.313C559.302,132.313 554.865,133.465 550.854,135.769C546.843,138.073 543.686,141.123 541.382,144.921C539.078,148.718 537.926,152.835 537.926,157.273L537.926,196.057L535.878,196.057L535.878,154.201C535.878,147.374 533.894,142.062 529.926,138.265C525.958,134.467 520.561,132.569 513.734,132.569C508.87,132.569 504.433,133.721 500.422,136.025C496.411,138.329 493.254,141.379 490.95,145.177C488.646,148.974 487.494,153.091 487.494,157.529L487.494,196.057L485.446,196.057L485.446,132.057L487.494,132.057L487.494,149.081C489.03,143.705 492.209,139.31 497.03,135.897C501.851,132.483 507.547,130.777 514.118,130.777C520.774,130.777 526.171,132.441 530.31,135.769C534.449,139.097 536.902,143.79 537.67,149.849C538.95,144.217 542.043,139.587 546.95,135.961C551.857,132.334 557.723,130.521 564.55,130.521C571.974,130.521 577.798,132.547 582.022,136.601Z" style="fill:black;fill-rule:nonzero;"/>
                        <path d="M612.806,132.825C613.318,133.337 613.574,134.019 613.574,134.873C613.574,135.726 613.318,136.409 612.806,136.921C612.294,137.433 611.611,137.689 610.758,137.689C609.905,137.689 609.222,137.433 608.71,136.921C608.198,136.409 607.942,135.726 607.942,134.873C607.942,134.019 608.198,133.337 608.71,132.825C609.222,132.313 609.905,132.057 610.758,132.057C611.611,132.057 612.294,132.313 612.806,132.825ZM612.806,191.833C613.318,192.345 613.574,193.027 613.574,193.881C613.574,194.734 613.318,195.417 612.806,195.929C612.294,196.441 611.611,196.697 610.758,196.697C609.905,196.697 609.222,196.441 608.71,195.929C608.198,195.417 607.942,194.734 607.942,193.881C607.942,193.027 608.198,192.345 608.71,191.833C609.222,191.321 609.905,191.065 610.758,191.065C611.611,191.065 612.294,191.321 612.806,191.833Z" style="fill:black;fill-rule:nonzero;"/>
                        <path d="M666.054,133.849L664.902,135.385C663.963,134.446 662.918,133.742 661.766,133.273C660.614,132.803 658.929,132.569 656.71,132.569C652.87,132.569 649.371,133.806 646.214,136.281C643.057,138.755 640.561,142.019 638.726,146.073C636.891,150.126 635.974,154.371 635.974,158.809L635.974,196.057L633.926,196.057L633.926,132.057L635.974,132.057L635.974,148.697C637.425,143.491 640.027,139.203 643.782,135.833C647.537,132.462 651.931,130.777 656.966,130.777C660.977,130.777 664.006,131.801 666.054,133.849Z" style="fill:black;fill-rule:nonzero;"/>
                        <path d="M728.262,132.057L728.262,196.057L726.214,196.057L726.214,179.033C724.678,184.409 721.499,188.803 716.678,192.217C711.857,195.63 706.118,197.337 699.462,197.337C692.379,197.337 686.875,195.374 682.95,191.449C679.025,187.523 677.062,181.934 677.062,174.681L677.062,132.057L679.11,132.057L679.11,174.425C679.11,181.166 680.923,186.371 684.55,190.041C688.177,193.71 693.275,195.545 699.846,195.545C705.563,195.545 710.406,194.222 714.374,191.577C718.342,188.931 721.307,185.71 723.27,181.913C725.233,178.115 726.214,174.467 726.214,170.969L726.214,132.057L728.262,132.057Z" style="fill:black;fill-rule:nonzero;"/>
                        <path d="M796.166,136.857C800.39,140.91 802.502,146.606 802.502,153.945L802.502,196.057L800.454,196.057L800.454,154.201C800.454,147.374 798.47,142.062 794.502,138.265C790.534,134.467 785.137,132.569 778.31,132.569C773.446,132.569 769.009,133.721 764.998,136.025C760.987,138.329 757.83,141.379 755.526,145.177C753.222,148.974 752.07,153.091 752.07,157.529L752.07,196.057L750.022,196.057L750.022,132.057L752.07,132.057L752.07,149.081C753.606,143.705 756.785,139.31 761.606,135.897C766.427,132.483 772.123,130.777 778.694,130.777C786.118,130.777 791.942,132.803 796.166,136.857Z" style="fill:black;fill-rule:nonzero;"/>
                        <path d="M850.454,141.657C853.174,144.217 857.787,145.497 864.294,145.497L864.294,156.697C857.787,156.697 853.174,157.977 850.454,160.537C847.734,163.097 846.374,167.363 846.374,173.337L846.374,206.457C846.374,213.07 844.427,218.03 840.534,221.337C836.641,224.643 830.214,226.297 821.254,226.297L819.174,215.897C824.507,215.897 828.374,215.203 830.774,213.817C833.174,212.43 834.374,210.297 834.374,207.417L834.374,172.217C834.374,160.803 840.454,153.763 852.614,151.097C840.454,148.43 834.374,141.39 834.374,129.977L834.374,94.777C834.374,91.897 833.174,89.763 830.774,88.377C828.374,86.99 824.507,86.297 819.174,86.297L821.254,75.897C830.214,75.897 836.641,77.55 840.534,80.857C844.427,84.163 846.374,89.123 846.374,95.737L846.374,128.857C846.374,134.83 847.734,139.097 850.454,141.657Z" style="fill:black;fill-rule:nonzero;"/>
                    </g>
                    <g transform="matrix(1,0,0,1,-47.4661,130.077)">
                        <path d="M179.214,183.673C180.078,184.377 180.51,185.353 180.51,186.601C180.51,187.817 180.078,188.777 179.214,189.481C178.35,190.185 177.174,190.537 175.686,190.537L172.086,190.537L172.086,196.057L170.886,196.057L170.886,182.617L175.686,182.617C177.174,182.617 178.35,182.969 179.214,183.673ZM178.374,188.749C178.998,188.245 179.31,187.529 179.31,186.601C179.31,185.657 178.998,184.929 178.374,184.417C177.75,183.905 176.854,183.649 175.686,183.649L172.086,183.649L172.086,189.505L175.686,189.505C176.854,189.505 177.75,189.253 178.374,188.749Z" style="fill:black;fill-rule:nonzero;"/>
                        <path d="M190.446,191.881L183.846,191.881L182.118,196.057L180.87,196.057L186.438,182.617L187.854,182.617L193.446,196.057L192.174,196.057L190.446,191.881ZM190.038,190.849L187.638,185.113L187.158,183.721L186.654,185.113L184.278,190.849L190.038,190.849Z" style="fill:black;fill-rule:nonzero;"/>
                        <path d="M203.91,183.649L198.798,183.649L198.798,196.057L197.598,196.057L197.598,183.649L192.462,183.649L192.462,182.617L203.91,182.617L203.91,183.649Z" style="fill:black;fill-rule:nonzero;"/>
                        <path d="M216.63,183.649L211.518,183.649L211.518,196.057L210.318,196.057L210.318,183.649L205.182,183.649L205.182,182.617L216.63,182.617L216.63,183.649Z" style="fill:black;fill-rule:nonzero;"/>
                        <path d="M229.398,195.025L229.398,196.057L219.366,196.057L219.366,182.617L229.062,182.617L229.062,183.649L220.566,183.649L220.566,188.713L227.286,188.713L227.286,189.745L220.566,189.745L220.566,195.025L229.398,195.025Z" style="fill:black;fill-rule:nonzero;"/>
                        <path d="M241.83,196.057L237.918,190.297L237.87,190.297L233.718,190.297L233.718,196.057L232.518,196.057L232.518,182.617L237.87,182.617C239.31,182.617 240.442,182.957 241.266,183.637C242.09,184.317 242.502,185.257 242.502,186.457C242.502,187.449 242.214,188.269 241.638,188.917C241.062,189.565 240.254,189.985 239.214,190.177L243.246,196.057L241.83,196.057ZM233.718,189.265L237.846,189.265C238.966,189.265 239.822,189.025 240.414,188.545C241.006,188.065 241.302,187.369 241.302,186.457C241.302,185.561 241.006,184.869 240.414,184.381C239.822,183.893 238.966,183.649 237.846,183.649L233.718,183.649L233.718,189.265Z" style="fill:black;fill-rule:nonzero;"/>
                        <path d="M257.286,196.057L255.678,196.057L248.358,185.377L247.446,183.889L247.422,183.889L247.494,185.353L247.494,196.057L246.318,196.057L246.318,182.617L247.926,182.617L255.15,193.177L256.158,194.785L256.182,194.785L256.11,193.321L256.11,182.617L257.286,182.617L257.286,196.057Z" style="fill:black;fill-rule:nonzero;"/>
                        <path d="M269.214,182.617L271.014,182.617L275.166,192.817L275.862,194.737L275.91,194.737L276.582,192.817L280.734,182.617L282.534,182.617L282.534,196.057L281.358,196.057L281.358,186.433L281.478,183.817L281.43,183.817L276.462,196.057L275.286,196.057L270.318,183.817L270.27,183.817L270.366,186.433L270.366,196.057L269.214,196.057L269.214,182.617Z" style="fill:black;fill-rule:nonzero;"/>
                        <path d="M294.774,191.881L288.174,191.881L286.446,196.057L285.198,196.057L290.766,182.617L292.182,182.617L297.774,196.057L296.502,196.057L294.774,191.881ZM294.366,190.849L291.966,185.113L291.486,183.721L290.982,185.113L288.606,190.849L294.366,190.849Z" style="fill:black;fill-rule:nonzero;"/>
                        <path d="M308.238,183.649L303.126,183.649L303.126,196.057L301.926,196.057L301.926,183.649L296.79,183.649L296.79,182.617L308.238,182.617L308.238,183.649Z" style="fill:black;fill-rule:nonzero;"/>
                        <path d="M319.422,195.289C318.414,195.929 317.174,196.249 315.702,196.249C314.438,196.249 313.326,195.969 312.366,195.409C311.406,194.849 310.662,194.049 310.134,193.009C309.606,191.969 309.342,190.745 309.342,189.337C309.342,187.929 309.606,186.705 310.134,185.665C310.662,184.625 311.41,183.825 312.378,183.265C313.346,182.705 314.47,182.425 315.75,182.425C317.19,182.425 318.378,182.725 319.314,183.325C320.25,183.925 320.902,184.825 321.27,186.025L320.142,186.529C319.838,185.473 319.33,184.697 318.618,184.201C317.906,183.705 316.942,183.457 315.726,183.457C314.702,183.457 313.798,183.693 313.014,184.165C312.23,184.637 311.622,185.317 311.19,186.205C310.758,187.093 310.542,188.137 310.542,189.337C310.542,190.537 310.758,191.581 311.19,192.469C311.622,193.357 312.226,194.037 313.002,194.509C313.778,194.981 314.67,195.217 315.678,195.217C316.942,195.217 317.966,194.957 318.75,194.437C319.534,193.917 320.046,193.161 320.286,192.169L321.438,192.553C321.102,193.737 320.43,194.649 319.422,195.289Z" style="fill:black;fill-rule:nonzero;"/>
                        <path d="M335.502,182.617L335.502,196.057L334.302,196.057L334.302,189.745L325.734,189.745L325.734,196.057L324.534,196.057L324.534,182.617L325.734,182.617L325.734,188.713L334.302,188.713L334.302,182.617L335.502,182.617Z" style="fill:black;fill-rule:nonzero;"/>
                        <rect x="339.918" y="182.617" width="1.2" height="13.44" style="fill:black;fill-rule:nonzero;"/>
                        <path d="M356.502,196.057L354.894,196.057L347.574,185.377L346.662,183.889L346.638,183.889L346.71,185.353L346.71,196.057L345.534,196.057L345.534,182.617L347.142,182.617L354.366,193.177L355.374,194.785L355.398,194.785L355.326,193.321L355.326,182.617L356.502,182.617L356.502,196.057Z" style="fill:black;fill-rule:nonzero;"/>
                        <path d="M372.222,189.433L372.222,196.057L371.262,196.057L371.214,193.417C370.846,194.329 370.258,195.029 369.45,195.517C368.642,196.005 367.622,196.249 366.39,196.249C365.11,196.249 363.994,195.969 363.042,195.409C362.09,194.849 361.354,194.049 360.834,193.009C360.314,191.969 360.054,190.745 360.054,189.337C360.054,187.929 360.326,186.705 360.87,185.665C361.414,184.625 362.174,183.825 363.15,183.265C364.126,182.705 365.254,182.425 366.534,182.425C367.99,182.425 369.174,182.701 370.086,183.253C370.998,183.805 371.686,184.649 372.15,185.785L371.07,186.361C370.75,185.401 370.206,184.677 369.438,184.189C368.67,183.701 367.71,183.457 366.558,183.457C365.534,183.457 364.618,183.693 363.81,184.165C363.002,184.637 362.374,185.317 361.926,186.205C361.478,187.093 361.254,188.137 361.254,189.337C361.254,191.177 361.722,192.617 362.658,193.657C363.594,194.697 364.87,195.217 366.486,195.217C367.51,195.217 368.37,195.009 369.066,194.593C369.762,194.177 370.274,193.629 370.602,192.949C370.93,192.269 371.094,191.529 371.094,190.729L371.094,190.441L366.39,190.441L366.39,189.433L372.222,189.433Z" style="fill:black;fill-rule:nonzero;"/>
                        <path d="M377.394,194.569C377.626,194.889 377.742,195.313 377.742,195.841C377.742,196.513 377.566,197.145 377.214,197.737C376.862,198.329 376.35,198.793 375.678,199.129L375.006,198.529C375.566,198.321 376.026,197.969 376.386,197.473C376.746,196.977 376.91,196.497 376.878,196.033L376.806,196.009C376.694,196.169 376.51,196.249 376.254,196.249C376.014,196.249 375.798,196.153 375.606,195.961C375.414,195.769 375.318,195.513 375.318,195.193C375.318,194.889 375.426,194.629 375.642,194.413C375.858,194.197 376.118,194.089 376.422,194.089C376.838,194.089 377.162,194.249 377.394,194.569Z" style="fill:black;fill-rule:nonzero;"/>
                        <path d="M397.086,183.673C397.95,184.377 398.382,185.353 398.382,186.601C398.382,187.817 397.95,188.777 397.086,189.481C396.222,190.185 395.046,190.537 393.558,190.537L389.958,190.537L389.958,196.057L388.758,196.057L388.758,182.617L393.558,182.617C395.046,182.617 396.222,182.969 397.086,183.673ZM396.246,188.749C396.87,188.245 397.182,187.529 397.182,186.601C397.182,185.657 396.87,184.929 396.246,184.417C395.622,183.905 394.726,183.649 393.558,183.649L389.958,183.649L389.958,189.505L393.558,189.505C394.726,189.505 395.622,189.253 396.246,188.749Z" style="fill:black;fill-rule:nonzero;"/>
                        <path d="M410.598,183.265C411.574,183.825 412.326,184.625 412.854,185.665C413.382,186.705 413.646,187.929 413.646,189.337C413.646,190.745 413.382,191.969 412.854,193.009C412.326,194.049 411.574,194.849 410.598,195.409C409.622,195.969 408.47,196.249 407.142,196.249C405.814,196.249 404.662,195.969 403.686,195.409C402.71,194.849 401.958,194.049 401.43,193.009C400.902,191.969 400.638,190.745 400.638,189.337C400.638,187.929 400.902,186.705 401.43,185.665C401.958,184.625 402.71,183.825 403.686,183.265C404.662,182.705 405.814,182.425 407.142,182.425C408.47,182.425 409.622,182.705 410.598,183.265ZM403.266,185.029C402.314,186.077 401.838,187.513 401.838,189.337C401.838,191.161 402.314,192.597 403.266,193.645C404.218,194.693 405.51,195.217 407.142,195.217C408.774,195.217 410.066,194.693 411.018,193.645C411.97,192.597 412.446,191.161 412.446,189.337C412.446,187.513 411.97,186.077 411.018,185.029C410.066,183.981 408.774,183.457 407.142,183.457C405.51,183.457 404.218,183.981 403.266,185.029Z" style="fill:black;fill-rule:nonzero;"/>
                        <path d="M424.038,186.793L421.278,196.057L419.766,196.057L415.446,182.617L416.694,182.617L419.238,190.777L420.558,195.025L424.182,182.617L425.574,182.617L429.198,195.025L430.542,190.729L433.062,182.617L434.262,182.617L429.942,196.057L428.454,196.057L425.694,186.793L424.854,183.721L424.83,183.721L424.038,186.793Z" style="fill:black;fill-rule:nonzero;"/>
                        <path d="M447.174,195.025L447.174,196.057L437.142,196.057L437.142,182.617L446.838,182.617L446.838,183.649L438.342,183.649L438.342,188.713L445.062,188.713L445.062,189.745L438.342,189.745L438.342,195.025L447.174,195.025Z" style="fill:black;fill-rule:nonzero;"/>
                        <path d="M459.606,196.057L455.694,190.297L455.646,190.297L451.494,190.297L451.494,196.057L450.294,196.057L450.294,182.617L455.646,182.617C457.086,182.617 458.218,182.957 459.042,183.637C459.866,184.317 460.278,185.257 460.278,186.457C460.278,187.449 459.99,188.269 459.414,188.917C458.838,189.565 458.03,189.985 456.99,190.177L461.022,196.057L459.606,196.057ZM451.494,189.265L455.622,189.265C456.742,189.265 457.598,189.025 458.19,188.545C458.782,188.065 459.078,187.369 459.078,186.457C459.078,185.561 458.782,184.869 458.19,184.381C457.598,183.893 456.742,183.649 455.622,183.649L451.494,183.649L451.494,189.265Z" style="fill:black;fill-rule:nonzero;"/>
                        <path d="M474.126,195.025L474.126,196.057L464.094,196.057L464.094,182.617L473.79,182.617L473.79,183.649L465.294,183.649L465.294,188.713L472.014,188.713L472.014,189.745L465.294,189.745L465.294,195.025L474.126,195.025Z" style="fill:black;fill-rule:nonzero;"/>
                        <path d="M486.99,184.321C488.19,185.457 488.79,187.097 488.79,189.241C488.79,191.449 488.19,193.137 486.99,194.305C485.79,195.473 484.062,196.057 481.806,196.057L477.246,196.057L477.246,182.617L481.806,182.617C484.062,182.617 485.79,183.185 486.99,184.321ZM486.126,193.537C487.102,192.545 487.59,191.113 487.59,189.241C487.59,187.433 487.102,186.049 486.126,185.089C485.15,184.129 483.734,183.649 481.878,183.649L478.446,183.649L478.446,195.025L481.878,195.025C483.734,195.025 485.15,194.529 486.126,193.537Z" style="fill:black;fill-rule:nonzero;"/>
                        <path d="M499.854,182.617L505.038,182.617C506.558,182.617 507.694,182.921 508.446,183.529C509.198,184.137 509.574,185.017 509.574,186.169C509.574,186.969 509.35,187.641 508.902,188.185C508.454,188.729 507.822,189.081 507.006,189.241L507.006,189.265C507.966,189.377 508.702,189.725 509.214,190.309C509.726,190.893 509.982,191.617 509.982,192.481C509.982,193.633 509.558,194.517 508.71,195.133C507.862,195.749 506.638,196.057 505.038,196.057L499.854,196.057L499.854,182.617ZM505.11,188.785C507.286,188.785 508.374,187.929 508.374,186.217C508.374,185.369 508.098,184.729 507.546,184.297C506.994,183.865 506.182,183.649 505.11,183.649L501.054,183.649L501.054,188.785L505.11,188.785ZM505.206,195.025C506.39,195.025 507.282,194.805 507.882,194.365C508.482,193.925 508.782,193.273 508.782,192.409C508.782,191.545 508.482,190.893 507.882,190.453C507.282,190.013 506.39,189.793 505.206,189.793L501.054,189.793L501.054,195.025L505.206,195.025Z" style="fill:black;fill-rule:nonzero;"/>
                        <path d="M517.398,190.873L517.398,196.057L516.198,196.057L516.198,190.873L511.23,182.617L512.598,182.617L516.798,189.817L518.358,187.177L521.022,182.617L522.366,182.617L517.398,190.873Z" style="fill:black;fill-rule:nonzero;"/>
                        <path d="M532.446,182.617L537.63,182.617C539.15,182.617 540.286,182.921 541.038,183.529C541.79,184.137 542.166,185.017 542.166,186.169C542.166,186.969 541.942,187.641 541.494,188.185C541.046,188.729 540.414,189.081 539.598,189.241L539.598,189.265C540.558,189.377 541.294,189.725 541.806,190.309C542.318,190.893 542.574,191.617 542.574,192.481C542.574,193.633 542.15,194.517 541.302,195.133C540.454,195.749 539.23,196.057 537.63,196.057L532.446,196.057L532.446,182.617ZM537.702,188.785C539.878,188.785 540.966,187.929 540.966,186.217C540.966,185.369 540.69,184.729 540.138,184.297C539.586,183.865 538.774,183.649 537.702,183.649L533.646,183.649L533.646,188.785L537.702,188.785ZM537.798,195.025C538.982,195.025 539.874,194.805 540.474,194.365C541.074,193.925 541.374,193.273 541.374,192.409C541.374,191.545 541.074,190.893 540.474,190.453C539.874,190.013 538.982,189.793 537.798,189.793L533.646,189.793L533.646,195.025L537.798,195.025Z" style="fill:black;fill-rule:nonzero;"/>
                        <path d="M555.702,195.025L555.702,196.057L546.126,196.057L546.126,182.617L547.326,182.617L547.326,195.025L555.702,195.025Z" style="fill:black;fill-rule:nonzero;"/>
                        <path d="M567.246,183.265C568.222,183.825 568.974,184.625 569.502,185.665C570.03,186.705 570.294,187.929 570.294,189.337C570.294,190.745 570.03,191.969 569.502,193.009C568.974,194.049 568.222,194.849 567.246,195.409C566.27,195.969 565.118,196.249 563.79,196.249C562.462,196.249 561.31,195.969 560.334,195.409C559.358,194.849 558.606,194.049 558.078,193.009C557.55,191.969 557.286,190.745 557.286,189.337C557.286,187.929 557.55,186.705 558.078,185.665C558.606,184.625 559.358,183.825 560.334,183.265C561.31,182.705 562.462,182.425 563.79,182.425C565.118,182.425 566.27,182.705 567.246,183.265ZM559.914,185.029C558.962,186.077 558.486,187.513 558.486,189.337C558.486,191.161 558.962,192.597 559.914,193.645C560.866,194.693 562.158,195.217 563.79,195.217C565.422,195.217 566.714,194.693 567.666,193.645C568.618,192.597 569.094,191.161 569.094,189.337C569.094,187.513 568.618,186.077 567.666,185.029C566.714,183.981 565.422,183.457 563.79,183.457C562.158,183.457 560.866,183.981 559.914,185.029Z" style="fill:black;fill-rule:nonzero;"/>
                        <path d="M582.942,183.265C583.918,183.825 584.67,184.625 585.198,185.665C585.726,186.705 585.99,187.929 585.99,189.337C585.99,190.745 585.726,191.969 585.198,193.009C584.67,194.049 583.918,194.849 582.942,195.409C581.966,195.969 580.814,196.249 579.486,196.249C578.158,196.249 577.006,195.969 576.03,195.409C575.054,194.849 574.302,194.049 573.774,193.009C573.246,191.969 572.982,190.745 572.982,189.337C572.982,187.929 573.246,186.705 573.774,185.665C574.302,184.625 575.054,183.825 576.03,183.265C577.006,182.705 578.158,182.425 579.486,182.425C580.814,182.425 581.966,182.705 582.942,183.265ZM575.61,185.029C574.658,186.077 574.182,187.513 574.182,189.337C574.182,191.161 574.658,192.597 575.61,193.645C576.562,194.693 577.854,195.217 579.486,195.217C581.118,195.217 582.41,194.693 583.362,193.645C584.314,192.597 584.79,191.161 584.79,189.337C584.79,187.513 584.314,186.077 583.362,185.029C582.41,183.981 581.118,183.457 579.486,183.457C577.854,183.457 576.562,183.981 575.61,185.029Z" style="fill:black;fill-rule:nonzero;"/>
                        <path d="M589.542,182.617L591.342,182.617L595.494,192.817L596.19,194.737L596.238,194.737L596.91,192.817L601.062,182.617L602.862,182.617L602.862,196.057L601.686,196.057L601.686,186.433L601.806,183.817L601.758,183.817L596.79,196.057L595.614,196.057L590.646,183.817L590.598,183.817L590.694,186.433L590.694,196.057L589.542,196.057L589.542,182.617Z" style="fill:black;fill-rule:nonzero;"/>
                        <path d="M615.99,183.649L615.99,188.713L622.71,188.713L622.71,189.745L615.99,189.745L615.99,196.057L614.79,196.057L614.79,182.617L624.486,182.617L624.486,183.649L615.99,183.649Z" style="fill:black;fill-rule:nonzero;"/>
                        <rect x="627.366" y="182.617" width="1.2" height="13.44" style="fill:black;fill-rule:nonzero;"/>
                        <path d="M642.558,195.025L642.558,196.057L632.982,196.057L632.982,182.617L634.182,182.617L634.182,195.025L642.558,195.025Z" style="fill:black;fill-rule:nonzero;"/>
                        <path d="M652.11,183.649L646.998,183.649L646.998,196.057L645.798,196.057L645.798,183.649L640.662,183.649L640.662,182.617L652.11,182.617L652.11,183.649Z" style="fill:black;fill-rule:nonzero;"/>
                        <path d="M664.878,195.025L664.878,196.057L654.846,196.057L654.846,182.617L664.542,182.617L664.542,183.649L656.046,183.649L656.046,188.713L662.766,188.713L662.766,189.745L656.046,189.745L656.046,195.025L664.878,195.025Z" style="fill:black;fill-rule:nonzero;"/>
                        <path d="M677.31,196.057L673.398,190.297L673.35,190.297L669.198,190.297L669.198,196.057L667.998,196.057L667.998,182.617L673.35,182.617C674.79,182.617 675.922,182.957 676.746,183.637C677.57,184.317 677.982,185.257 677.982,186.457C677.982,187.449 677.694,188.269 677.118,188.917C676.542,189.565 675.734,189.985 674.694,190.177L678.726,196.057L677.31,196.057ZM669.198,189.265L673.326,189.265C674.446,189.265 675.302,189.025 675.894,188.545C676.486,188.065 676.782,187.369 676.782,186.457C676.782,185.561 676.486,184.869 675.894,184.381C675.302,183.893 674.446,183.649 673.326,183.649L669.198,183.649L669.198,189.265Z" style="fill:black;fill-rule:nonzero;"/>
                        <path d="M691.59,185.353L690.654,186.145C690.302,185.201 689.77,184.517 689.058,184.093C688.346,183.669 687.414,183.457 686.262,183.457C685.046,183.457 684.074,183.717 683.346,184.237C682.618,184.757 682.254,185.401 682.254,186.169C682.254,186.745 682.446,187.209 682.83,187.561C683.214,187.913 683.69,188.173 684.258,188.341C684.826,188.509 685.598,188.689 686.574,188.881C687.71,189.089 688.618,189.305 689.298,189.529C689.978,189.753 690.558,190.105 691.038,190.585C691.518,191.065 691.758,191.729 691.758,192.577C691.758,193.297 691.534,193.937 691.086,194.497C690.638,195.057 690.014,195.489 689.214,195.793C688.414,196.097 687.494,196.249 686.454,196.249C684.95,196.249 683.69,195.977 682.674,195.433C681.658,194.889 680.966,194.105 680.598,193.081L681.534,192.289C681.822,193.249 682.394,193.977 683.25,194.473C684.106,194.969 685.174,195.217 686.454,195.217C687.67,195.217 688.658,194.989 689.418,194.533C690.178,194.077 690.558,193.449 690.558,192.649C690.558,192.073 690.366,191.613 689.982,191.269C689.598,190.925 689.122,190.669 688.554,190.501C687.986,190.333 687.222,190.161 686.262,189.985C685.126,189.761 684.214,189.541 683.526,189.325C682.838,189.109 682.254,188.757 681.774,188.269C681.294,187.781 681.054,187.113 681.054,186.265C681.054,185.577 681.262,184.937 681.678,184.345C682.094,183.753 682.698,183.285 683.49,182.941C684.282,182.597 685.198,182.425 686.238,182.425C688.894,182.425 690.678,183.401 691.59,185.353Z" style="fill:black;fill-rule:nonzero;"/>
                    </g>
                    <g transform="matrix(1.04037,2.53526e-16,6.87332e-15,0.142857,-16.5211,242.143)">
                        <rect x="112" y="412" width="545" height="7" style="fill:black;"/>
                    </g>
                </g>
            </g>
        </g>
    </g>
</svg>
